# xmcd CD database file
#
# Track frame offsets:
#	150
#	16287
#	40620
#	56657
#	72205
#	85660
#	101830
#	125780
#	149170
#	167882
#	184457
#	235807
#
# Disc length: 3420 seconds
#
# Revision: 0
# Processed by: cddbd v1.5.1PL0 Copyright (c) Steve Scherf et al.
# Submitted via: CDex 1.51
#
DISCID=ae0d5a0c
DTITLE=Benny Goodman - Benny Goodman Today
DYEAR=1971
DGENRE=Jazz
TTITLE0=Don't be that way
TTITLE1=Willow Weep for me
TTITLE2=Big John's special
TTITLE3=A String of Pearls
TTITLE4=Poor Butterfly
TTITLE5=Dear Dave
TTITLE6=Roll 'em
TTITLE7=One O'clock jump
TTITLE8=I would do most anythig for you
TTITLE9=Sing Sing Sing part1
TTITLE10=Sing Sing Sing part2
TTITLE11=Goodbye
EXTD=YEAR: 1971
EXTT0=
EXTT1=
EXTT2=
EXTT3=
EXTT4=
EXTT5=
EXTT6=
EXTT7=
EXTT8=
EXTT9=
EXTT10=
EXTT11=
PLAYORDER=
